<?xml version="1.0" encoding="utf-8"?>
<!-- Generator: Adobe Illustrator 28.1.0, SVG Export Plug-In . SVG Version: 6.00 Build 0)  -->
<svg version="1.1" id="Layer_1" xmlns="http://www.w3.org/2000/svg" xmlns:xlink="http://www.w3.org/1999/xlink" x="0px" y="0px"
	 viewBox="0 0 256 256" style="enable-background:new 0 0 256 256;" xml:space="preserve">
<style type="text/css">
	.st0{fill:#6666FF;}
</style>
<g>
	<path class="st0" d="M83.5,104.8l32.9-22.1V15.3c-1.5,1.1-2.9,2.1-4.2,3.2c-1.3,1.1-2.6,2.2-3.8,3.5l-96,95.4v20.8l96.3,96.1
		l3.8,3.2l3.8,3.2v-81.2l22.4-14.7l-55.3-17.3V104.8z"/>
	<path class="st0" d="M221.3,128.1c7.2-7,12.9-15.1,16.9-24.1c4.1-9.1,6.1-18.7,6.1-28.9c0-21.3-7.9-39.1-23.7-53.4
		C204.9,7.4,186,0.2,164.1,0.2c-3.6,0-7.3,0.2-11,0.6c-1,0.1-1.9,0.3-2.9,0.5v94.9l-22.4,15l55,17.3v23l-32.6,21.4v82
		c1,0.2,1.9,0.3,2.9,0.5c3.7,0.4,7.5,0.6,11.4,0.6c21.7,0,40.5-7.2,56.3-21.6s23.7-32.2,23.7-53.6c0-10.2-2-19.9-6.1-28.9
		C234.2,142.9,228.5,134.9,221.3,128.1z"/>
</g>
</svg>
