<svg version="1.1" id="Layer_1" xmlns="http://www.w3.org/2000/svg" xmlns:xlink="http://www.w3.org/1999/xlink" x="0px" y="0px"
	 viewBox="0 0 300 68" style="enable-background:new 0 0 300 68;" xml:space="preserve">
	<style type="text/css">
		.st0{fill:#FFFFFF;}
		.st1{fill:#6666FF;}
	</style>
	<g id="Layer_2_00000164512343663959024050000002665835844009138585_">
	</g>
	<g>
		<path class="st0" d="M70.6,29.9c1.6,2.3,2.4,5.6,2.4,9.8c0,2.6-0.4,4.9-1.2,6.9c-0.8,2-2,3.6-3.5,4.8s-3.2,1.7-5.2,1.7
			c-2.4,0-4.3-0.8-5.8-2.5v11.2L48,62.9V27.4h8.2l0.4,2.4c1-1.2,2.1-2,3.3-2.6c1.2-0.5,2.5-0.8,3.7-0.8C66.7,26.4,69,27.6,70.6,29.9z
			M63.5,39.9c0-1.9-0.1-3.3-0.4-4.3c-0.2-1-0.6-1.7-1-2s-1-0.5-1.6-0.5c-1.3,0-2.4,0.8-3.3,2.3v9.5c0.4,0.6,0.8,1.1,1.3,1.3
			c0.4,0.3,0.9,0.4,1.5,0.4C62.3,46.6,63.5,44.4,63.5,39.9z"/>
	</g>
	<g>
		<path class="st0" d="M99.2,42.4H84.1c0.2,1.7,0.8,2.8,1.6,3.4c0.8,0.6,1.9,0.9,3.4,0.9c0.9,0,1.8-0.2,2.7-0.5
			c0.9-0.4,1.9-0.9,3-1.7l3.7,5c-3,2.5-6.4,3.7-10.3,3.7c-4.4,0-7.8-1.2-10-3.7c-2.3-2.4-3.4-5.7-3.4-9.7c0-2.5,0.5-4.8,1.4-6.8
			s2.4-3.7,4.2-4.9c1.9-1.2,4.1-1.8,6.8-1.8c2.5,0,4.6,0.5,6.4,1.5s3.3,2.5,4.3,4.5s1.5,4.3,1.5,7C99.4,40.3,99.3,41.2,99.2,42.4z
			M90.3,36.9c0-1.5-0.3-2.6-0.7-3.4s-1.2-1.2-2.3-1.2c-1,0-1.8,0.4-2.3,1.1c-0.5,0.7-0.8,2-1,3.9h6.3V36.9z"/>
	</g>
	<g>
		<path class="st0" d="M123.1,28.4c1.2,1.3,1.8,3.1,1.8,5.5v18.4h-9.2V35.6c0-0.9-0.1-1.6-0.4-1.9c-0.2-0.3-0.6-0.5-1.1-0.5
			c-1,0-2.1,0.8-3.1,2.5v16.7h-9.2v-25h8.1l0.7,2.6c1.2-1.2,2.3-2.1,3.5-2.7s2.5-0.8,4-0.8C120.3,26.4,121.9,27.1,123.1,28.4z"/>
	</g>
	<path class="st1" d="M173.8,15c1,0.9,1.5,2.1,1.5,3.5s-0.5,2.6-1.5,3.5s-2.2,1.4-3.7,1.4s-2.7-0.5-3.7-1.4s-1.5-2.1-1.5-3.5
		s0.5-2.6,1.5-3.5s2.2-1.4,3.7-1.4S172.8,14.1,173.8,15z M174.7,27.4v24.9h-9.2V27.4H174.7z"/>
	<path class="st1" d="M199.7,29.9c2.3,2.3,3.4,5.6,3.4,9.9c0,2.7-0.5,5-1.6,7c-1,2-2.5,3.6-4.5,4.7c-1.9,1.1-4.2,1.6-6.8,1.6
		c-4,0-7.1-1.2-9.4-3.5c-2.3-2.3-3.4-5.6-3.4-9.9c0-2.7,0.5-5,1.6-7c1-2,2.5-3.6,4.5-4.7c1.9-1.1,4.2-1.6,6.8-1.6
		C194.3,26.4,197.4,27.6,199.7,29.9z M187.7,34.6c-0.5,1.1-0.8,2.8-0.8,5.1c0,2.5,0.3,4.2,0.8,5.2s1.4,1.6,2.6,1.6s2-0.5,2.6-1.6
		c0.5-1.1,0.8-2.8,0.8-5.1c0-2.5-0.3-4.2-0.8-5.2s-1.4-1.6-2.6-1.6S188.3,33.6,187.7,34.6z"/>
	<path class="st1" d="M223.3,51.1c-1,0.7-2.1,1.2-3.5,1.6c-1.4,0.4-2.7,0.6-3.9,0.6c-3.1,0-5.4-0.9-6.8-2.6c-1.5-1.7-2.2-4.2-2.2-7.5
		v-9.5h-3v-6.3h3v-5.2l9.2-1.1v6.3h5.6l-0.9,6.3H216V43c0,1.1,0.2,1.9,0.5,2.3c0.3,0.5,0.8,0.7,1.4,0.7c0.8,0,1.6-0.2,2.3-0.7
		L223.3,51.1z"/>
	<path class="st1" d="M246.9,42.4h-15.1c0.2,1.7,0.8,2.8,1.6,3.4c0.8,0.6,1.9,0.9,3.4,0.9c0.9,0,1.8-0.2,2.7-0.5
		c0.9-0.4,1.9-0.9,3-1.7l3.7,5c-3,2.5-6.4,3.7-10.3,3.7c-4.4,0-7.8-1.2-10-3.7c-2.3-2.4-3.4-5.7-3.4-9.7c0-2.5,0.5-4.8,1.4-6.8
		s2.4-3.7,4.2-4.9c1.9-1.2,4.1-1.8,6.8-1.8c2.5,0,4.6,0.5,6.4,1.5c1.8,1,3.3,2.5,4.3,4.5s1.5,4.3,1.5,7
		C247.1,40.3,247.1,41.2,246.9,42.4z M238,36.9c0-1.5-0.3-2.6-0.7-3.4c-0.4-0.8-1.2-1.2-2.3-1.2c-1,0-1.8,0.4-2.3,1.1
		c-0.5,0.7-0.8,2-1,3.9h6.3V36.9z"/>
	<path class="st1" d="M270.5,29.7l-3.8,5.4c-1.4-1.2-2.9-1.7-4.4-1.7c-1.4,0-2.5,0.5-3.2,1.5s-1,2.7-1,5.1c0,2.3,0.4,3.9,1.1,4.8
		s1.7,1.3,3.1,1.3c0.7,0,1.4-0.1,2-0.4c0.6-0.2,1.4-0.6,2.3-1.2l4,5.6c-2.5,2.1-5.5,3.1-8.8,3.1c-2.7,0-5.1-0.6-7-1.7
		c-2-1.1-3.5-2.7-4.6-4.7s-1.6-4.3-1.6-6.9c0-2.6,0.5-4.9,1.6-7s2.6-3.7,4.5-4.8c2-1.2,4.2-1.7,6.8-1.7C265,26.4,268,27.5,270.5,29.7
		z"/>
	<path class="st1" d="M293.2,28.4c1.2,1.3,1.8,3.1,1.8,5.5v18.4h-9.2V35.6c0-0.9-0.1-1.6-0.4-1.9c-0.2-0.3-0.6-0.5-1.1-0.5
		c-1,0-2.1,0.8-3.1,2.5v16.7H272V17.6l9.2-0.9v13c1.1-1.1,2.1-1.9,3.3-2.4c1.1-0.5,2.4-0.7,3.8-0.7C290.4,26.4,292,27.1,293.2,28.4z"
		/>
	<g>
		<path class="st0" d="M25.5,12.9L25.5,12.9C14.2,12.9,5,22.1,5,33.4C5,41.6,9.9,49,17.4,52.2L22,40.1c-2.4-1.2-4.1-3.8-4.1-6.7
			c0-4.1,3.4-7.5,7.5-7.5s7.5,3.4,7.5,7.5c0,2.9-1.7,5.5-4.1,6.7l4.6,12.1c7.3-3.1,12.4-10.4,12.4-18.8
			C45.9,22.1,36.8,12.9,25.5,12.9z"/>
	</g>
	<path class="st1" d="M137.9,29l5.1-3.4V15.3c-0.2,0.2-0.4,0.3-0.6,0.5c-0.2,0.2-0.4,0.3-0.6,0.5L127,31v3.2L141.8,49l0.6,0.5L143,50
		V37.4l3.4-2.3l-8.5-2.7L137.9,29L137.9,29z"/>
	<path class="st1" d="M159.1,32.6c1.1-1.1,2-2.3,2.6-3.7c0.6-1.4,0.9-2.9,0.9-4.4c0-3.3-1.2-6-3.6-8.2c-2.4-2.2-5.3-3.3-8.7-3.3
		c-0.6,0-1.1,0-1.7,0.1c-0.2,0-0.3,0-0.4,0.1v14.6l-3.4,2.3l8.4,2.7v3.5l-5,3.3v12.6c0.1,0,0.3,0.1,0.4,0.1c0.6,0.1,1.2,0.1,1.7,0.1
		c3.3,0,6.2-1.1,8.6-3.3s3.6-5,3.6-8.2c0-1.6-0.3-3.1-0.9-4.4C161.1,34.9,160.2,33.7,159.1,32.6z"/>
</svg>
